<svg xmlns="http://www.w3.org/2000/svg" version="1.1" xmlns:xlink="http://www.w3.org/1999/xlink" xmlns:svgjs="http://svgjs.com/svgjs" width="1440" height="860" preserveAspectRatio="none" viewBox="0 0 1440 860"><g mask="url(&quot;#SvgjsMask1992&quot;)" fill="none"><rect width="1440" height="860" x="0" y="0" fill="url(#SvgjsRadialGradient1993)"></rect><path d="M1440 0L825.8 0L1440 409.37z" fill="rgba(255, 255, 255, .1)"></path><path d="M825.8 0L1440 409.37L1440 474.11L647.3599999999999 0z" fill="rgba(255, 255, 255, .075)"></path><path d="M647.3599999999999 0L1440 474.11L1440 589.16L282.7799999999999 0z" fill="rgba(255, 255, 255, .05)"></path><path d="M282.78 0L1440 589.16L1440 715.98L109.69999999999996 0z" fill="rgba(255, 255, 255, .025)"></path><path d="M0 860L89.72 860L0 780.95z" fill="rgba(0, 0, 0, .1)"></path><path d="M0 780.95L89.72 860L144.45 860L0 464.29z" fill="rgba(0, 0, 0, .075)"></path><path d="M0 464.28999999999996L144.45 860L859.23 860L0 430.76z" fill="rgba(0, 0, 0, .05)"></path><path d="M0 430.76L859.23 860L1062.53 860L0 346.08z" fill="rgba(0, 0, 0, .025)"></path></g><defs><mask id="SvgjsMask1992"><rect width="1440" height="860" fill="#ffffff"></rect></mask><radialGradient cx="0%" cy="0%" r="1677.26" gradientUnits="userSpaceOnUse" id="SvgjsRadialGradient1993"><stop stop-color="rgba(255, 218, 255, 1)" offset="0"></stop><stop stop-color="rgba(255, 182, 193, 1)" offset="0"></stop><stop stop-color="rgba(252, 192, 203, 1)" offset="1"></stop></radialGradient></defs></svg>