<svg xmlns="http://www.w3.org/2000/svg" version="1.1" xmlns:xlink="http://www.w3.org/1999/xlink" xmlns:svgjs="http://svgjs.com/svgjs" width="1400" height="860" preserveAspectRatio="none" viewBox="0 0 1400 860"><g mask="url(&quot;#SvgjsMask1808&quot;)" fill="none"><rect width="1400" height="860" x="0" y="0" fill="url(#SvgjsRadialGradient1809)"></rect><use xlink:href="#SvgjsSymbol1816" x="0" y="0"></use><use xlink:href="#SvgjsSymbol1816" x="0" y="720"></use><use xlink:href="#SvgjsSymbol1816" x="720" y="0"></use><use xlink:href="#SvgjsSymbol1816" x="720" y="720"></use></g><defs><mask id="SvgjsMask1808"><rect width="1400" height="860" fill="#ffffff"></rect></mask><radialGradient cx="50%" cy="0%" r="1108.87" gradientUnits="userSpaceOnUse" id="SvgjsRadialGradient1809"><stop stop-color="#0e2a47" offset="0"></stop><stop stop-color="rgba(140, 5, 93, 1)" offset="0.97"></stop><stop stop-color="rgba(140, 5, 93, 1)" offset="1"></stop><stop stop-color="rgba(140, 5, 93, 1)" offset="1"></stop></radialGradient><path d="M-1 0 a1 1 0 1 0 2 0 a1 1 0 1 0 -2 0z" id="SvgjsPath1814"></path><path d="M-3 0 a3 3 0 1 0 6 0 a3 3 0 1 0 -6 0z" id="SvgjsPath1813"></path><path d="M-5 0 a5 5 0 1 0 10 0 a5 5 0 1 0 -10 0z" id="SvgjsPath1810"></path><path d="M2 -2 L-2 2z" id="SvgjsPath1812"></path><path d="M6 -6 L-6 6z" id="SvgjsPath1811"></path><path d="M30 -30 L-30 30z" id="SvgjsPath1815"></path></defs><symbol id="SvgjsSymbol1816"><use xlink:href="#SvgjsPath1810" x="30" y="30" stroke="rgba(222, 134, 235, 1)"></use><use xlink:href="#SvgjsPath1811" x="30" y="90" stroke="rgba(222, 134, 235, 1)"></use><use xlink:href="#SvgjsPath1812" x="30" y="150" stroke="rgba(222, 134, 235, 1)"></use><use xlink:href="#SvgjsPath1811" x="30" y="210" stroke="rgba(222, 134, 235, 1)"></use><use xlink:href="#SvgjsPath1810" x="30" y="270" stroke="rgba(222, 134, 235, 1)"></use><use xlink:href="#SvgjsPath1810" x="30" y="330" stroke="rgba(222, 134, 235, 1)"></use><use xlink:href="#SvgjsPath1813" x="30" y="390" stroke="rgba(222, 134, 235, 1)"></use><use xlink:href="#SvgjsPath1810" x="30" y="450" stroke="rgba(222, 134, 235, 1)"></use><use xlink:href="#SvgjsPath1810" x="30" y="510" stroke="rgba(222, 134, 235, 1)"></use><use xlink:href="#SvgjsPath1813" x="30" y="570" stroke="rgba(222, 134, 235, 1)"></use><use xlink:href="#SvgjsPath1810" x="30" y="630" stroke="rgba(222, 134, 235, 1)"></use><use xlink:href="#SvgjsPath1811" x="30" y="690" stroke="rgba(222, 134, 235, 1)"></use><use xlink:href="#SvgjsPath1814" x="90" y="30" stroke="rgba(222, 134, 235, 1)"></use><use xlink:href="#SvgjsPath1811" x="90" y="90" stroke="rgba(222, 134, 235, 1)"></use><use xlink:href="#SvgjsPath1811" x="90" y="150" stroke="rgba(222, 134, 235, 1)"></use><use xlink:href="#SvgjsPath1811" x="90" y="210" stroke="rgba(222, 134, 235, 1)"></use><use xlink:href="#SvgjsPath1810" x="90" y="270" stroke="rgba(222, 134, 235, 1)"></use><use xlink:href="#SvgjsPath1810" x="90" y="330" stroke="rgba(222, 134, 235, 1)"></use><use xlink:href="#SvgjsPath1815" x="90" y="390" stroke="rgba(222, 134, 235, 1)" stroke-width="3"></use><use xlink:href="#SvgjsPath1812" x="90" y="450" stroke="rgba(222, 134, 235, 1)"></use><use xlink:href="#SvgjsPath1810" x="90" y="510" stroke="rgba(222, 134, 235, 1)"></use><use xlink:href="#SvgjsPath1810" x="90" y="570" stroke="rgba(222, 134, 235, 1)"></use><use xlink:href="#SvgjsPath1814" x="90" y="630" stroke="rgba(222, 134, 235, 1)"></use><use xlink:href="#SvgjsPath1812" x="90" y="690" stroke="rgba(222, 134, 235, 1)"></use><use xlink:href="#SvgjsPath1811" x="150" y="30" stroke="rgba(222, 134, 235, 1)"></use><use xlink:href="#SvgjsPath1815" x="150" y="90" stroke="rgba(222, 134, 235, 1)" stroke-width="3"></use><use xlink:href="#SvgjsPath1812" x="150" y="150" stroke="rgba(222, 134, 235, 1)"></use><use xlink:href="#SvgjsPath1812" x="150" y="210" stroke="rgba(222, 134, 235, 1)"></use><use xlink:href="#SvgjsPath1810" x="150" y="270" stroke="rgba(222, 134, 235, 1)"></use><use xlink:href="#SvgjsPath1813" x="150" y="330" stroke="rgba(222, 134, 235, 1)"></use><use xlink:href="#SvgjsPath1811" x="150" y="390" stroke="rgba(222, 134, 235, 1)"></use><use xlink:href="#SvgjsPath1810" x="150" y="450" stroke="rgba(222, 134, 235, 1)"></use><use xlink:href="#SvgjsPath1815" x="150" y="510" stroke="rgba(222, 134, 235, 1)" stroke-width="3"></use><use xlink:href="#SvgjsPath1815" x="150" y="570" stroke="rgba(222, 134, 235, 1)" stroke-width="3"></use><use xlink:href="#SvgjsPath1812" x="150" y="630" stroke="rgba(222, 134, 235, 1)"></use><use xlink:href="#SvgjsPath1811" x="150" y="690" stroke="rgba(222, 134, 235, 1)"></use><use xlink:href="#SvgjsPath1814" x="210" y="30" stroke="rgba(222, 134, 235, 1)"></use><use xlink:href="#SvgjsPath1811" x="210" y="90" stroke="rgba(222, 134, 235, 1)"></use><use xlink:href="#SvgjsPath1812" x="210" y="150" stroke="rgba(222, 134, 235, 1)"></use><use xlink:href="#SvgjsPath1810" x="210" y="210" stroke="rgba(222, 134, 235, 1)"></use><use xlink:href="#SvgjsPath1812" x="210" y="270" stroke="rgba(222, 134, 235, 1)"></use><use xlink:href="#SvgjsPath1811" x="210" y="330" stroke="rgba(222, 134, 235, 1)"></use><use xlink:href="#SvgjsPath1810" x="210" y="390" stroke="rgba(222, 134, 235, 1)"></use><use xlink:href="#SvgjsPath1814" x="210" y="450" stroke="rgba(222, 134, 235, 1)"></use><use xlink:href="#SvgjsPath1813" x="210" y="510" stroke="rgba(222, 134, 235, 1)"></use><use xlink:href="#SvgjsPath1811" x="210" y="570" stroke="rgba(222, 134, 235, 1)"></use><use xlink:href="#SvgjsPath1813" x="210" y="630" stroke="rgba(222, 134, 235, 1)"></use><use xlink:href="#SvgjsPath1810" x="210" y="690" stroke="rgba(222, 134, 235, 1)"></use><use xlink:href="#SvgjsPath1813" x="270" y="30" stroke="rgba(222, 134, 235, 1)"></use><use xlink:href="#SvgjsPath1810" x="270" y="90" stroke="rgba(222, 134, 235, 1)"></use><use xlink:href="#SvgjsPath1810" x="270" y="150" stroke="rgba(222, 134, 235, 1)"></use><use xlink:href="#SvgjsPath1813" x="270" y="210" stroke="rgba(222, 134, 235, 1)"></use><use xlink:href="#SvgjsPath1810" x="270" y="270" stroke="rgba(222, 134, 235, 1)"></use><use xlink:href="#SvgjsPath1812" x="270" y="330" stroke="rgba(222, 134, 235, 1)"></use><use xlink:href="#SvgjsPath1814" x="270" y="390" stroke="rgba(222, 134, 235, 1)"></use><use xlink:href="#SvgjsPath1812" x="270" y="450" stroke="rgba(222, 134, 235, 1)"></use><use xlink:href="#SvgjsPath1811" x="270" y="510" stroke="rgba(222, 134, 235, 1)"></use><use xlink:href="#SvgjsPath1811" x="270" y="570" stroke="rgba(222, 134, 235, 1)"></use><use xlink:href="#SvgjsPath1810" x="270" y="630" stroke="rgba(222, 134, 235, 1)"></use><use xlink:href="#SvgjsPath1810" x="270" y="690" stroke="rgba(222, 134, 235, 1)"></use><use xlink:href="#SvgjsPath1810" x="330" y="30" stroke="rgba(222, 134, 235, 1)"></use><use xlink:href="#SvgjsPath1814" x="330" y="90" stroke="rgba(222, 134, 235, 1)"></use><use xlink:href="#SvgjsPath1811" x="330" y="150" stroke="rgba(222, 134, 235, 1)"></use><use xlink:href="#SvgjsPath1815" x="330" y="210" stroke="rgba(222, 134, 235, 1)" stroke-width="3"></use><use xlink:href="#SvgjsPath1811" x="330" y="270" stroke="rgba(222, 134, 235, 1)"></use><use xlink:href="#SvgjsPath1811" x="330" y="330" stroke="rgba(222, 134, 235, 1)"></use><use xlink:href="#SvgjsPath1811" x="330" y="390" stroke="rgba(222, 134, 235, 1)"></use><use xlink:href="#SvgjsPath1812" x="330" y="450" stroke="rgba(222, 134, 235, 1)"></use><use xlink:href="#SvgjsPath1811" x="330" y="510" stroke="rgba(222, 134, 235, 1)"></use><use xlink:href="#SvgjsPath1810" x="330" y="570" stroke="rgba(222, 134, 235, 1)"></use><use xlink:href="#SvgjsPath1812" x="330" y="630" stroke="rgba(222, 134, 235, 1)"></use><use xlink:href="#SvgjsPath1811" x="330" y="690" stroke="rgba(222, 134, 235, 1)"></use><use xlink:href="#SvgjsPath1811" x="390" y="30" stroke="rgba(222, 134, 235, 1)"></use><use xlink:href="#SvgjsPath1813" x="390" y="90" stroke="rgba(222, 134, 235, 1)"></use><use xlink:href="#SvgjsPath1811" x="390" y="150" stroke="rgba(222, 134, 235, 1)"></use><use xlink:href="#SvgjsPath1810" x="390" y="210" stroke="rgba(222, 134, 235, 1)"></use><use xlink:href="#SvgjsPath1814" x="390" y="270" stroke="rgba(222, 134, 235, 1)"></use><use xlink:href="#SvgjsPath1813" x="390" y="330" stroke="rgba(222, 134, 235, 1)"></use><use xlink:href="#SvgjsPath1812" x="390" y="390" stroke="rgba(222, 134, 235, 1)"></use><use xlink:href="#SvgjsPath1810" x="390" y="450" stroke="rgba(222, 134, 235, 1)"></use><use xlink:href="#SvgjsPath1811" x="390" y="510" stroke="rgba(222, 134, 235, 1)"></use><use xlink:href="#SvgjsPath1810" x="390" y="570" stroke="rgba(222, 134, 235, 1)"></use><use xlink:href="#SvgjsPath1810" x="390" y="630" stroke="rgba(222, 134, 235, 1)"></use><use xlink:href="#SvgjsPath1810" x="390" y="690" stroke="rgba(222, 134, 235, 1)"></use><use xlink:href="#SvgjsPath1810" x="450" y="30" stroke="rgba(222, 134, 235, 1)"></use><use xlink:href="#SvgjsPath1811" x="450" y="90" stroke="rgba(222, 134, 235, 1)"></use><use xlink:href="#SvgjsPath1811" x="450" y="150" stroke="rgba(222, 134, 235, 1)"></use><use xlink:href="#SvgjsPath1810" x="450" y="210" stroke="rgba(222, 134, 235, 1)"></use><use xlink:href="#SvgjsPath1813" x="450" y="270" stroke="rgba(222, 134, 235, 1)"></use><use xlink:href="#SvgjsPath1810" x="450" y="330" stroke="rgba(222, 134, 235, 1)"></use><use xlink:href="#SvgjsPath1815" x="450" y="390" stroke="rgba(222, 134, 235, 1)" stroke-width="3"></use><use xlink:href="#SvgjsPath1811" x="450" y="450" stroke="rgba(222, 134, 235, 1)"></use><use xlink:href="#SvgjsPath1811" x="450" y="510" stroke="rgba(222, 134, 235, 1)"></use><use xlink:href="#SvgjsPath1811" x="450" y="570" stroke="rgba(222, 134, 235, 1)"></use><use xlink:href="#SvgjsPath1814" x="450" y="630" stroke="rgba(222, 134, 235, 1)"></use><use xlink:href="#SvgjsPath1810" x="450" y="690" stroke="rgba(222, 134, 235, 1)"></use><use xlink:href="#SvgjsPath1810" x="510" y="30" stroke="rgba(222, 134, 235, 1)"></use><use xlink:href="#SvgjsPath1813" x="510" y="90" stroke="rgba(222, 134, 235, 1)"></use><use xlink:href="#SvgjsPath1811" x="510" y="150" stroke="rgba(222, 134, 235, 1)"></use><use xlink:href="#SvgjsPath1810" x="510" y="210" stroke="rgba(222, 134, 235, 1)"></use><use xlink:href="#SvgjsPath1812" x="510" y="270" stroke="rgba(222, 134, 235, 1)"></use><use xlink:href="#SvgjsPath1810" x="510" y="330" stroke="rgba(222, 134, 235, 1)"></use><use xlink:href="#SvgjsPath1810" x="510" y="390" stroke="rgba(222, 134, 235, 1)"></use><use xlink:href="#SvgjsPath1813" x="510" y="450" stroke="rgba(222, 134, 235, 1)"></use><use xlink:href="#SvgjsPath1810" x="510" y="510" stroke="rgba(222, 134, 235, 1)"></use><use xlink:href="#SvgjsPath1810" x="510" y="570" stroke="rgba(222, 134, 235, 1)"></use><use xlink:href="#SvgjsPath1810" x="510" y="630" stroke="rgba(222, 134, 235, 1)"></use><use xlink:href="#SvgjsPath1810" x="510" y="690" stroke="rgba(222, 134, 235, 1)"></use><use xlink:href="#SvgjsPath1810" x="570" y="30" stroke="rgba(222, 134, 235, 1)"></use><use xlink:href="#SvgjsPath1811" x="570" y="90" stroke="rgba(222, 134, 235, 1)"></use><use xlink:href="#SvgjsPath1810" x="570" y="150" stroke="rgba(222, 134, 235, 1)"></use><use xlink:href="#SvgjsPath1810" x="570" y="210" stroke="rgba(222, 134, 235, 1)"></use><use xlink:href="#SvgjsPath1813" x="570" y="270" stroke="rgba(222, 134, 235, 1)"></use><use xlink:href="#SvgjsPath1812" x="570" y="330" stroke="rgba(222, 134, 235, 1)"></use><use xlink:href="#SvgjsPath1811" x="570" y="390" stroke="rgba(222, 134, 235, 1)"></use><use xlink:href="#SvgjsPath1810" x="570" y="450" stroke="rgba(222, 134, 235, 1)"></use><use xlink:href="#SvgjsPath1810" x="570" y="510" stroke="rgba(222, 134, 235, 1)"></use><use xlink:href="#SvgjsPath1811" x="570" y="570" stroke="rgba(222, 134, 235, 1)"></use><use xlink:href="#SvgjsPath1813" x="570" y="630" stroke="rgba(222, 134, 235, 1)"></use><use xlink:href="#SvgjsPath1812" x="570" y="690" stroke="rgba(222, 134, 235, 1)"></use><use xlink:href="#SvgjsPath1810" x="630" y="30" stroke="rgba(222, 134, 235, 1)"></use><use xlink:href="#SvgjsPath1811" x="630" y="90" stroke="rgba(222, 134, 235, 1)"></use><use xlink:href="#SvgjsPath1810" x="630" y="150" stroke="rgba(222, 134, 235, 1)"></use><use xlink:href="#SvgjsPath1811" x="630" y="210" stroke="rgba(222, 134, 235, 1)"></use><use xlink:href="#SvgjsPath1814" x="630" y="270" stroke="rgba(222, 134, 235, 1)"></use><use xlink:href="#SvgjsPath1815" x="630" y="330" stroke="rgba(222, 134, 235, 1)" stroke-width="3"></use><use xlink:href="#SvgjsPath1811" x="630" y="390" stroke="rgba(222, 134, 235, 1)"></use><use xlink:href="#SvgjsPath1814" x="630" y="450" stroke="rgba(222, 134, 235, 1)"></use><use xlink:href="#SvgjsPath1811" x="630" y="510" stroke="rgba(222, 134, 235, 1)"></use><use xlink:href="#SvgjsPath1815" x="630" y="570" stroke="rgba(222, 134, 235, 1)" stroke-width="3"></use><use xlink:href="#SvgjsPath1811" x="630" y="630" stroke="rgba(222, 134, 235, 1)"></use><use xlink:href="#SvgjsPath1814" x="630" y="690" stroke="rgba(222, 134, 235, 1)"></use><use xlink:href="#SvgjsPath1811" x="690" y="30" stroke="rgba(222, 134, 235, 1)"></use><use xlink:href="#SvgjsPath1810" x="690" y="90" stroke="rgba(222, 134, 235, 1)"></use><use xlink:href="#SvgjsPath1812" x="690" y="150" stroke="rgba(222, 134, 235, 1)"></use><use xlink:href="#SvgjsPath1810" x="690" y="210" stroke="rgba(222, 134, 235, 1)"></use><use xlink:href="#SvgjsPath1810" x="690" y="270" stroke="rgba(222, 134, 235, 1)"></use><use xlink:href="#SvgjsPath1811" x="690" y="330" stroke="rgba(222, 134, 235, 1)"></use><use xlink:href="#SvgjsPath1814" x="690" y="390" stroke="rgba(222, 134, 235, 1)"></use><use xlink:href="#SvgjsPath1810" x="690" y="450" stroke="rgba(222, 134, 235, 1)"></use><use xlink:href="#SvgjsPath1810" x="690" y="510" stroke="rgba(222, 134, 235, 1)"></use><use xlink:href="#SvgjsPath1810" x="690" y="570" stroke="rgba(222, 134, 235, 1)"></use><use xlink:href="#SvgjsPath1813" x="690" y="630" stroke="rgba(222, 134, 235, 1)"></use><use xlink:href="#SvgjsPath1814" x="690" y="690" stroke="rgba(222, 134, 235, 1)"></use></symbol></svg>